<?xml version="1.0" encoding="utf-8"?>
<!-- Generator: Adobe Illustrator 16.0.0, SVG Export Plug-In . SVG Version: 6.00 Build 0)  -->
<!DOCTYPE svg PUBLIC "-//W3C//DTD SVG 1.1//EN" "http://www.w3.org/Graphics/SVG/1.1/DTD/svg11.dtd">
<svg version="1.1" id="Layer_1" xmlns="http://www.w3.org/2000/svg" xmlns:xlink="http://www.w3.org/1999/xlink" x="0px" y="0px"
	 width="205.578px" height="210.076px" viewBox="0 0 205.578 210.076" enable-background="new 0 0 205.578 210.076"
	 xml:space="preserve">
<g>
	<path fill="#25B5B5" d="M203.659,105.513c0,3.622-7.831,6.773-8.223,10.291c-0.4,3.591,6.536,8.394,5.749,11.853
		c-0.799,3.515-9.135,4.844-10.309,8.2c-1.188,3.395,4.496,9.63,2.948,12.838c-1.561,3.234-9.982,2.665-11.884,5.684
		c-1.91,3.035,2.242,10.381,0.012,13.172c-2.234,2.799-10.319,0.375-12.849,2.904s-0.106,10.614-2.904,12.849
		c-2.792,2.229-10.138-1.923-13.172-0.013c-3.02,1.901-2.451,10.323-5.685,11.883c-3.208,1.547-9.443-4.137-12.838-2.949
		c-3.355,1.174-4.684,9.51-8.199,10.309c-3.459,0.786-8.262-6.149-11.853-5.75c-3.517,0.392-6.668,8.223-10.29,8.223
		s-6.773-7.831-10.291-8.223c-3.591-0.4-8.394,6.536-11.853,5.749c-3.515-0.799-4.844-9.135-8.201-10.309
		c-3.395-1.188-9.63,4.497-12.838,2.949c-3.234-1.561-2.665-9.982-5.684-11.884c-3.035-1.911-10.381,2.242-13.173,0.012
		c-2.799-2.235-0.375-10.319-2.904-12.849s-10.615-0.106-12.849-2.905c-2.229-2.792,1.923-10.137,0.013-13.171
		c-1.901-3.02-10.323-2.451-11.883-5.685c-1.548-3.208,4.137-9.443,2.949-12.838c-1.174-3.355-9.51-4.685-10.309-8.199
		c-0.786-3.459,6.149-8.262,5.75-11.853c-0.392-3.517-8.223-6.668-8.223-10.29s7.831-6.773,8.223-10.291
		c0.4-3.591-6.536-8.394-5.749-11.853c0.799-3.515,9.135-4.844,10.309-8.2c1.188-3.396-4.497-9.63-2.949-12.838
		c1.56-3.234,9.982-2.666,11.883-5.685c1.911-3.034-2.241-10.38-0.012-13.172c2.235-2.798,10.319-0.375,12.849-2.904
		c2.529-2.529,0.106-10.614,2.905-12.849c2.792-2.229,10.138,1.923,13.172,0.013c3.019-1.901,2.451-10.323,5.685-11.883
		c3.208-1.548,9.442,4.137,12.838,2.949c3.355-1.174,4.685-9.51,8.199-10.309c3.459-0.786,8.262,6.149,11.853,5.75
		c3.517-0.392,6.668-8.223,10.29-8.223s6.773,7.831,10.291,8.223c3.591,0.4,8.394-6.536,11.853-5.749
		c3.515,0.799,4.844,9.135,8.2,10.309c3.395,1.188,9.63-4.497,12.838-2.949c3.234,1.561,2.665,9.982,5.684,11.884
		c3.034,1.91,10.38-2.242,13.172-0.012c2.798,2.234,0.375,10.319,2.904,12.849s10.614,0.106,12.849,2.904
		c2.229,2.792-1.923,10.138-0.013,13.172c1.901,3.019,10.323,2.451,11.883,5.685c1.548,3.208-4.137,9.442-2.949,12.838
		c1.174,3.355,9.51,4.685,10.309,8.199c0.786,3.459-6.149,8.262-5.75,11.853C195.828,98.74,203.659,101.891,203.659,105.513z"/>
	<g>
		<path fill="#FFFFFF" stroke="#FFFFFF" stroke-width="0.7087" stroke-miterlimit="10" d="M70.968,86.042v0.45
			c0,0.18-0.15,0.39-0.39,0.39c-0.24,0-0.39-0.21-0.39-0.39v-1.56c0-0.24,0.15-0.39,0.39-0.39c0.03,0,0.09,0,0.12,0.03
			c0.09,0,0.18,0.06,0.27,0.12l0.9,1.29c0.12,0.15,0.06,0.39-0.09,0.51c-0.09,0.09-0.15,0.09-0.24,0.09c-0.12,0-0.21-0.06-0.3-0.18
			L70.968,86.042z M70.188,88.052c0-0.24,0.15-0.39,0.39-0.39c0.24,0,0.39,0.15,0.39,0.39v1.56c0,0.18-0.15,0.36-0.39,0.36
			c-0.24,0-0.39-0.18-0.39-0.36V88.052z M70.188,91.142c0-0.24,0.15-0.39,0.39-0.39c0.24,0,0.39,0.15,0.39,0.39v1.56
			c0,0.18-0.15,0.39-0.39,0.39c-0.24,0-0.39-0.21-0.39-0.39V91.142z M70.188,94.262c0-0.24,0.15-0.39,0.39-0.39
			c0.24,0,0.39,0.15,0.39,0.39v1.56c0,0.18-0.15,0.36-0.39,0.36c-0.24,0-0.39-0.18-0.39-0.36V94.262z M70.188,97.352
			c0-0.21,0.15-0.39,0.39-0.39c0.24,0,0.39,0.18,0.39,0.39v1.56c0,0.21-0.15,0.39-0.39,0.39c-0.24,0-0.39-0.18-0.39-0.39V97.352z
			 M70.188,100.472c0-0.24,0.15-0.39,0.39-0.39c0.24,0,0.39,0.15,0.39,0.39v1.56c0,0.18-0.15,0.36-0.39,0.36
			c-0.24,0-0.39-0.18-0.39-0.36V100.472z M70.188,103.562c0-0.21,0.15-0.39,0.39-0.39c0.24,0,0.39,0.18,0.39,0.39v1.56
			c0,0.21-0.15,0.39-0.39,0.39c-0.24,0-0.39-0.18-0.39-0.39V103.562z M72.138,87.692c-0.12-0.18-0.09-0.42,0.06-0.54
			c0.21-0.15,0.45-0.12,0.54,0.09l0.93,1.229c0.12,0.18,0.09,0.42-0.09,0.54c-0.06,0.09-0.12,0.09-0.21,0.09
			c-0.15,0-0.27-0.06-0.36-0.15L72.138,87.692z M73.968,90.212c-0.12-0.18-0.09-0.42,0.06-0.54c0.21-0.15,0.42-0.12,0.54,0.09
			l0.9,1.23c0.15,0.21,0.12,0.42-0.09,0.54c-0.06,0.09-0.15,0.09-0.21,0.09c-0.12,0-0.24-0.06-0.33-0.15L73.968,90.212z
			 M75.768,92.702c-0.15-0.15-0.12-0.39,0.09-0.51c0.15-0.15,0.42-0.12,0.54,0.09l0.9,1.23c0.12,0.21,0.06,0.42-0.09,0.54
			c-0.06,0.06-0.15,0.09-0.24,0.09c-0.09,0-0.21-0.03-0.3-0.15L75.768,92.702z M79.157,96.362c0,0.09-0.06,0.18-0.12,0.21
			c-0.09,0.06-0.15,0.09-0.24,0.09c-0.12,0-0.24-0.03-0.3-0.15l-0.93-1.29c-0.12-0.15-0.09-0.39,0.12-0.54
			c0.15-0.12,0.39-0.09,0.54,0.12l0.9,1.23C79.157,96.151,79.188,96.271,79.157,96.362c-0.03-0.09,0-0.21,0.06-0.33l0.96-1.23
			c0.09-0.21,0.33-0.24,0.54-0.12c0.15,0.15,0.18,0.39,0.06,0.54l-0.93,1.29c-0.03,0.12-0.18,0.15-0.3,0.15
			c-0.09,0-0.15-0.03-0.21-0.09C79.248,96.542,79.188,96.452,79.157,96.362z M81.047,93.512l0.9-1.23c0.15-0.21,0.39-0.24,0.54-0.09
			c0.21,0.12,0.24,0.36,0.12,0.51l-0.93,1.29c-0.09,0.12-0.18,0.15-0.3,0.15c-0.09,0-0.18-0.03-0.24-0.09
			C80.987,93.932,80.927,93.722,81.047,93.512z M82.877,90.992l0.9-1.23c0.12-0.21,0.39-0.24,0.54-0.09
			c0.18,0.12,0.24,0.36,0.09,0.54l-0.9,1.26c-0.09,0.09-0.21,0.15-0.33,0.15c-0.06,0-0.15,0-0.21-0.09
			C82.817,91.412,82.757,91.202,82.877,90.992z M84.707,88.472l0.9-1.229c0.12-0.21,0.33-0.24,0.54-0.09
			c0.15,0.12,0.18,0.36,0.06,0.54l-0.87,1.26c-0.09,0.09-0.21,0.15-0.33,0.15c-0.06,0-0.15,0-0.21-0.09
			C84.587,88.892,84.557,88.652,84.707,88.472z M87.377,86.072l-0.24,0.33c-0.06,0.12-0.18,0.18-0.33,0.18c-0.09,0-0.15,0-0.21-0.09
			c-0.18-0.12-0.21-0.36-0.12-0.51l0.93-1.29c0.06-0.06,0.15-0.12,0.24-0.12c0.03-0.03,0.09-0.03,0.12-0.03
			c0.24,0,0.39,0.15,0.39,0.39v1.56c0,0.18-0.15,0.39-0.39,0.39c-0.18,0-0.39-0.21-0.39-0.39V86.072z M87.377,88.052
			c0-0.24,0.21-0.39,0.39-0.39c0.24,0,0.39,0.15,0.39,0.39v1.56c0,0.18-0.15,0.36-0.39,0.36c-0.18,0-0.39-0.18-0.39-0.36V88.052z
			 M87.377,91.142c0-0.24,0.21-0.39,0.39-0.39c0.24,0,0.39,0.15,0.39,0.39v1.56c0,0.18-0.15,0.39-0.39,0.39
			c-0.18,0-0.39-0.21-0.39-0.39V91.142z M87.377,94.262c0-0.24,0.21-0.39,0.39-0.39c0.24,0,0.39,0.15,0.39,0.39v1.56
			c0,0.18-0.15,0.36-0.39,0.36c-0.18,0-0.39-0.18-0.39-0.36V94.262z M87.377,97.352c0-0.21,0.21-0.39,0.39-0.39
			c0.24,0,0.39,0.18,0.39,0.39v1.56c0,0.21-0.15,0.39-0.39,0.39c-0.18,0-0.39-0.18-0.39-0.39V97.352z M87.377,100.472
			c0-0.24,0.21-0.39,0.39-0.39c0.24,0,0.39,0.15,0.39,0.39v1.56c0,0.18-0.15,0.36-0.39,0.36c-0.18,0-0.39-0.18-0.39-0.36V100.472z
			 M87.377,103.562c0-0.21,0.21-0.39,0.39-0.39c0.24,0,0.39,0.18,0.39,0.39v1.56c0,0.21-0.15,0.39-0.39,0.39
			c-0.18,0-0.39-0.18-0.39-0.39V103.562z"/>
		<path fill="#FFFFFF" stroke="#FFFFFF" stroke-width="0.7087" stroke-miterlimit="10" d="M95.718,84.902
			c0-0.24,0.15-0.39,0.39-0.39c0.18,0,0.39,0.15,0.39,0.39v1.56c0,0.18-0.21,0.39-0.39,0.39c-0.24,0-0.39-0.21-0.39-0.39V84.902z
			 M95.718,88.022c0-0.24,0.15-0.39,0.39-0.39c0.18,0,0.39,0.15,0.39,0.39v1.56c0,0.18-0.21,0.36-0.39,0.36
			c-0.24,0-0.39-0.18-0.39-0.36V88.022z M95.718,91.112c0-0.21,0.15-0.39,0.39-0.39c0.18,0,0.39,0.18,0.39,0.39v1.56
			c0,0.21-0.21,0.39-0.39,0.39c-0.24,0-0.39-0.18-0.39-0.39V91.112z M95.718,94.231c0-0.24,0.15-0.39,0.39-0.39
			c0.18,0,0.39,0.15,0.39,0.39v1.56c0,0.18-0.21,0.39-0.39,0.39c-0.24,0-0.39-0.21-0.39-0.39V94.231z M95.718,97.352
			c0-0.24,0.15-0.39,0.39-0.39c0.18,0,0.39,0.15,0.39,0.39v1.56c0,0.18-0.21,0.39-0.39,0.39c-0.24,0-0.39-0.21-0.39-0.39V97.352z
			 M95.718,100.441c0-0.21,0.15-0.36,0.39-0.36c0.18,0,0.39,0.15,0.39,0.36v1.56c0,0.21-0.21,0.39-0.39,0.39
			c-0.24,0-0.39-0.18-0.39-0.39V100.441z M95.718,103.562c0-0.24,0.15-0.39,0.39-0.39c0.18,0,0.39,0.15,0.39,0.39v1.56
			c0,0.21-0.21,0.39-0.39,0.39c-0.24,0-0.39-0.18-0.39-0.39V103.562z"/>
		<path fill="#FFFFFF" stroke="#FFFFFF" stroke-width="0.7087" stroke-miterlimit="10" d="M103.667,102.451
			c-0.15-0.12-0.18-0.33-0.06-0.48c0.12-0.15,0.33-0.15,0.48-0.03c0.33,0.24,0.66,0.51,1.05,0.75c0.15,0.12,0.21,0.33,0.09,0.48
			c-0.06,0.09-0.18,0.15-0.3,0.15c-0.06,0-0.12-0.03-0.18-0.06C104.357,102.991,103.998,102.721,103.667,102.451z M104.237,89.822
			c-0.03-0.18,0.12-0.33,0.3-0.36c0.18,0,0.36,0.12,0.36,0.3c0.06,0.45,0.15,0.84,0.36,1.2c0.09,0.15,0.03,0.36-0.15,0.45
			c-0.06,0.03-0.12,0.03-0.15,0.03c-0.12,0-0.24-0.06-0.33-0.18C104.417,90.842,104.268,90.362,104.237,89.822z M104.388,88.352
			c0.12-0.48,0.36-0.9,0.63-1.32c0.12-0.15,0.33-0.21,0.48-0.09s0.21,0.33,0.09,0.48c-0.24,0.36-0.45,0.72-0.54,1.11
			c-0.06,0.15-0.18,0.27-0.33,0.27c-0.03,0-0.09,0-0.12-0.03C104.417,88.712,104.328,88.532,104.388,88.352z M105.558,92.432
			c-0.15-0.12-0.15-0.33-0.03-0.48c0.15-0.15,0.36-0.15,0.48-0.03c0.3,0.27,0.66,0.54,1.05,0.75c0.18,0.09,0.24,0.3,0.15,0.48
			c-0.09,0.12-0.18,0.18-0.3,0.18c-0.06,0-0.12-0.03-0.18-0.06C106.277,93.032,105.887,92.762,105.558,92.432z M105.947,103.981
			c-0.15-0.09-0.21-0.3-0.12-0.45c0.09-0.18,0.3-0.24,0.45-0.15c0.39,0.21,0.78,0.42,1.2,0.6c0.18,0.06,0.27,0.27,0.18,0.45
			c-0.06,0.12-0.18,0.21-0.3,0.21c-0.06,0-0.09-0.03-0.15-0.03C106.788,104.401,106.337,104.221,105.947,103.981z M106.007,85.952
			c0.36-0.3,0.78-0.54,1.2-0.78c0.18-0.09,0.39-0.03,0.48,0.15c0.09,0.15,0.03,0.36-0.15,0.45c-0.39,0.21-0.75,0.45-1.08,0.72
			c-0.06,0.06-0.15,0.09-0.21,0.09c-0.12,0-0.21-0.06-0.27-0.15C105.857,86.312,105.887,86.072,106.007,85.952z M108.017,93.872
			c-0.18-0.06-0.27-0.27-0.21-0.42c0.09-0.18,0.27-0.27,0.45-0.21c0.39,0.15,0.81,0.3,1.26,0.42c0.18,0.06,0.3,0.24,0.24,0.42
			c-0.03,0.15-0.18,0.27-0.33,0.27c-0.03,0-0.06,0-0.09-0.03C108.887,94.202,108.438,94.052,108.017,93.872z M108.527,84.632
			c0.45-0.15,0.93-0.27,1.41-0.33c0.18-0.03,0.36,0.09,0.39,0.3c0.03,0.18-0.12,0.36-0.3,0.39c-0.45,0.06-0.87,0.15-1.29,0.27
			c-0.03,0.03-0.06,0.03-0.09,0.03c-0.15,0-0.27-0.09-0.33-0.24C108.257,84.872,108.347,84.692,108.527,84.632z M108.557,105.061
			c-0.18-0.03-0.3-0.24-0.24-0.42c0.06-0.18,0.24-0.27,0.42-0.24c0.42,0.15,0.84,0.24,1.29,0.3c0.18,0.03,0.33,0.21,0.3,0.39
			c-0.03,0.18-0.18,0.3-0.36,0.3h-0.03C109.458,105.301,108.977,105.211,108.557,105.061z M111.317,94.771h-0.06
			c-0.18-0.03-0.39-0.06-0.57-0.12c-0.18-0.03-0.3-0.21-0.27-0.39c0.06-0.18,0.24-0.3,0.42-0.27c0.18,0.03,0.36,0.06,0.54,0.12h0.06
			c0.27,0.06,0.51,0.09,0.75,0.15c0.18,0.03,0.3,0.21,0.27,0.39c-0.06,0.18-0.18,0.3-0.36,0.3c0,0-0.03-0.03-0.06-0.03
			C111.797,94.892,111.557,94.832,111.317,94.771z M111.347,84.902c-0.18-0.03-0.36-0.18-0.36-0.36c0-0.18,0.18-0.33,0.36-0.33
			c0.48,0,0.96,0.03,1.41,0.12c0.21,0.03,0.33,0.21,0.3,0.39c-0.03,0.18-0.18,0.3-0.36,0.3c0,0-0.03-0.03-0.06-0.03
			C112.217,84.932,111.797,84.902,111.347,84.902z M110.987,105.151c0-0.18,0.18-0.33,0.36-0.33h0.03c0.45,0,0.87-0.03,1.29-0.09
			c0.18-0.03,0.36,0.12,0.39,0.3s-0.12,0.36-0.3,0.39c-0.45,0.06-0.9,0.09-1.38,0.09h-0.03
			C111.137,105.511,110.987,105.331,110.987,105.151z M113.357,95.251c-0.18-0.06-0.3-0.24-0.24-0.42c0.03-0.18,0.24-0.3,0.42-0.24
			c0.45,0.15,0.9,0.27,1.32,0.45c0.18,0.06,0.27,0.27,0.21,0.45c-0.06,0.12-0.18,0.21-0.33,0.21c-0.03,0-0.09,0-0.12-0.03
			C114.227,95.521,113.807,95.372,113.357,95.251z M113.927,85.322c-0.18-0.06-0.27-0.24-0.21-0.42c0.06-0.18,0.24-0.27,0.42-0.21
			c0.45,0.15,0.9,0.33,1.32,0.54c0.15,0.09,0.24,0.3,0.15,0.48c-0.06,0.12-0.18,0.18-0.3,0.18c-0.06,0-0.12,0-0.18-0.03
			C114.737,85.652,114.347,85.472,113.927,85.322z M113.957,104.461c0.42-0.12,0.84-0.27,1.23-0.45c0.18-0.09,0.39,0,0.45,0.15
			c0.09,0.18,0,0.39-0.15,0.45c-0.42,0.21-0.87,0.39-1.35,0.51c-0.03,0-0.06,0-0.09,0c-0.15,0-0.27-0.09-0.33-0.24
			C113.657,104.701,113.777,104.521,113.957,104.461z M115.817,96.211c-0.15-0.09-0.21-0.3-0.12-0.45c0.09-0.18,0.3-0.24,0.45-0.15
			c0.45,0.24,0.84,0.51,1.2,0.81c0.15,0.12,0.18,0.33,0.06,0.48c-0.09,0.06-0.18,0.12-0.27,0.12c-0.09,0-0.15-0.03-0.21-0.09
			C116.597,96.691,116.237,96.452,115.817,96.211z M116.327,86.492c-0.18-0.09-0.24-0.3-0.12-0.45c0.09-0.18,0.3-0.21,0.45-0.12
			c0.42,0.24,0.81,0.51,1.17,0.75c0.18,0.09,0.21,0.3,0.12,0.45c-0.09,0.12-0.18,0.18-0.3,0.18c-0.06,0-0.12-0.03-0.18-0.06
			C117.077,87.002,116.717,86.732,116.327,86.492z M116.327,103.352c0.36-0.27,0.69-0.54,0.96-0.87c0.12-0.15,0.33-0.15,0.48-0.03
			c0.15,0.12,0.15,0.36,0.03,0.48c-0.33,0.36-0.69,0.69-1.08,0.96c-0.06,0.06-0.12,0.09-0.21,0.09c-0.09,0-0.21-0.06-0.27-0.15
			C116.117,103.681,116.177,103.471,116.327,103.352z M117.767,97.861c-0.09-0.15-0.06-0.36,0.09-0.48
			c0.18-0.09,0.39-0.06,0.48,0.09c0.3,0.42,0.48,0.87,0.6,1.35c0.06,0.21-0.06,0.39-0.24,0.42c-0.03,0-0.06,0-0.09,0
			c-0.15,0-0.3-0.09-0.33-0.24C118.187,98.582,118.007,98.222,117.767,97.861z M117.977,101.432c0.21-0.39,0.33-0.78,0.36-1.2
			c0.03-0.18,0.21-0.33,0.39-0.3c0.18,0.03,0.33,0.21,0.3,0.39c-0.06,0.48-0.21,0.96-0.42,1.41c-0.06,0.12-0.18,0.18-0.3,0.18
			c-0.06,0-0.12,0-0.15-0.03C117.977,101.821,117.917,101.611,117.977,101.432z"/>
		<path fill="#FFFFFF" stroke="#FFFFFF" stroke-width="0.7087" stroke-miterlimit="10" d="M123.377,102.451
			c-0.15-0.12-0.18-0.33-0.06-0.48c0.12-0.15,0.33-0.15,0.48-0.03c0.33,0.24,0.66,0.51,1.05,0.75c0.15,0.12,0.21,0.33,0.09,0.48
			c-0.06,0.09-0.18,0.15-0.3,0.15c-0.06,0-0.12-0.03-0.18-0.06C124.067,102.991,123.708,102.721,123.377,102.451z M123.947,89.822
			c-0.03-0.18,0.12-0.33,0.3-0.36c0.18,0,0.36,0.12,0.36,0.3c0.06,0.45,0.15,0.84,0.36,1.2c0.09,0.15,0.03,0.36-0.15,0.45
			c-0.06,0.03-0.12,0.03-0.15,0.03c-0.12,0-0.24-0.06-0.33-0.18C124.127,90.842,123.978,90.362,123.947,89.822z M124.098,88.352
			c0.12-0.48,0.36-0.9,0.63-1.32c0.12-0.15,0.33-0.21,0.48-0.09s0.21,0.33,0.09,0.48c-0.24,0.36-0.45,0.72-0.54,1.11
			c-0.06,0.15-0.18,0.27-0.33,0.27c-0.03,0-0.09,0-0.12-0.03C124.127,88.712,124.038,88.532,124.098,88.352z M125.268,92.432
			c-0.15-0.12-0.15-0.33-0.03-0.48c0.15-0.15,0.36-0.15,0.48-0.03c0.3,0.27,0.66,0.54,1.05,0.75c0.18,0.09,0.24,0.3,0.15,0.48
			c-0.09,0.12-0.18,0.18-0.3,0.18c-0.06,0-0.12-0.03-0.18-0.06C125.987,93.032,125.597,92.762,125.268,92.432z M125.657,103.981
			c-0.15-0.09-0.21-0.3-0.12-0.45c0.09-0.18,0.3-0.24,0.45-0.15c0.39,0.21,0.78,0.42,1.2,0.6c0.18,0.06,0.27,0.27,0.18,0.45
			c-0.06,0.12-0.18,0.21-0.3,0.21c-0.06,0-0.09-0.03-0.15-0.03C126.498,104.401,126.047,104.221,125.657,103.981z M125.717,85.952
			c0.36-0.3,0.78-0.54,1.2-0.78c0.18-0.09,0.39-0.03,0.48,0.15c0.09,0.15,0.03,0.36-0.15,0.45c-0.39,0.21-0.75,0.45-1.08,0.72
			c-0.06,0.06-0.15,0.09-0.21,0.09c-0.12,0-0.21-0.06-0.27-0.15C125.567,86.312,125.597,86.072,125.717,85.952z M127.727,93.872
			c-0.18-0.06-0.27-0.27-0.21-0.42c0.09-0.18,0.27-0.27,0.45-0.21c0.39,0.15,0.81,0.3,1.26,0.42c0.18,0.06,0.3,0.24,0.24,0.42
			c-0.03,0.15-0.18,0.27-0.33,0.27c-0.03,0-0.06,0-0.09-0.03C128.597,94.202,128.147,94.052,127.727,93.872z M128.237,84.632
			c0.45-0.15,0.93-0.27,1.41-0.33c0.18-0.03,0.36,0.09,0.39,0.3c0.03,0.18-0.12,0.36-0.3,0.39c-0.45,0.06-0.87,0.15-1.29,0.27
			c-0.03,0.03-0.06,0.03-0.09,0.03c-0.15,0-0.27-0.09-0.33-0.24C127.967,84.872,128.057,84.692,128.237,84.632z M128.267,105.061
			c-0.18-0.03-0.3-0.24-0.24-0.42c0.06-0.18,0.24-0.27,0.42-0.24c0.42,0.15,0.84,0.24,1.29,0.3c0.18,0.03,0.33,0.21,0.3,0.39
			c-0.03,0.18-0.18,0.3-0.36,0.3h-0.03C129.167,105.301,128.687,105.211,128.267,105.061z M131.027,94.771h-0.06
			c-0.18-0.03-0.39-0.06-0.57-0.12c-0.18-0.03-0.3-0.21-0.27-0.39c0.06-0.18,0.24-0.3,0.42-0.27c0.18,0.03,0.36,0.06,0.54,0.12h0.06
			c0.27,0.06,0.51,0.09,0.75,0.15c0.18,0.03,0.3,0.21,0.27,0.39c-0.06,0.18-0.18,0.3-0.36,0.3c0,0-0.03-0.03-0.06-0.03
			C131.507,94.892,131.267,94.832,131.027,94.771z M131.057,84.902c-0.18-0.03-0.36-0.18-0.36-0.36c0-0.18,0.18-0.33,0.36-0.33
			c0.48,0,0.96,0.03,1.41,0.12c0.21,0.03,0.33,0.21,0.3,0.39c-0.03,0.18-0.18,0.3-0.36,0.3c0,0-0.03-0.03-0.06-0.03
			C131.927,84.932,131.507,84.902,131.057,84.902z M130.697,105.151c0-0.18,0.18-0.33,0.36-0.33h0.03c0.45,0,0.87-0.03,1.29-0.09
			c0.18-0.03,0.36,0.12,0.39,0.3s-0.12,0.36-0.3,0.39c-0.45,0.06-0.9,0.09-1.38,0.09h-0.03
			C130.847,105.511,130.697,105.331,130.697,105.151z M133.067,95.251c-0.18-0.06-0.3-0.24-0.24-0.42c0.03-0.18,0.24-0.3,0.42-0.24
			c0.45,0.15,0.9,0.27,1.32,0.45c0.18,0.06,0.27,0.27,0.21,0.45c-0.06,0.12-0.18,0.21-0.33,0.21c-0.03,0-0.09,0-0.12-0.03
			C133.937,95.521,133.517,95.372,133.067,95.251z M133.637,85.322c-0.18-0.06-0.27-0.24-0.21-0.42c0.06-0.18,0.24-0.27,0.42-0.21
			c0.45,0.15,0.9,0.33,1.32,0.54c0.15,0.09,0.24,0.3,0.15,0.48c-0.06,0.12-0.18,0.18-0.3,0.18c-0.06,0-0.12,0-0.18-0.03
			C134.447,85.652,134.057,85.472,133.637,85.322z M133.667,104.461c0.42-0.12,0.84-0.27,1.23-0.45c0.18-0.09,0.39,0,0.45,0.15
			c0.09,0.18,0,0.39-0.15,0.45c-0.42,0.21-0.87,0.39-1.35,0.51c-0.03,0-0.06,0-0.09,0c-0.15,0-0.27-0.09-0.33-0.24
			C133.367,104.701,133.487,104.521,133.667,104.461z M135.527,96.211c-0.15-0.09-0.21-0.3-0.12-0.45c0.09-0.18,0.3-0.24,0.45-0.15
			c0.45,0.24,0.84,0.51,1.2,0.81c0.15,0.12,0.18,0.33,0.06,0.48c-0.09,0.06-0.18,0.12-0.27,0.12c-0.09,0-0.15-0.03-0.21-0.09
			C136.307,96.691,135.947,96.452,135.527,96.211z M136.037,86.492c-0.18-0.09-0.24-0.3-0.12-0.45c0.09-0.18,0.3-0.21,0.45-0.12
			c0.42,0.24,0.81,0.51,1.17,0.75c0.18,0.09,0.21,0.3,0.12,0.45c-0.09,0.12-0.18,0.18-0.3,0.18c-0.06,0-0.12-0.03-0.18-0.06
			C136.787,87.002,136.427,86.732,136.037,86.492z M136.037,103.352c0.36-0.27,0.69-0.54,0.96-0.87c0.12-0.15,0.33-0.15,0.48-0.03
			c0.15,0.12,0.15,0.36,0.03,0.48c-0.33,0.36-0.69,0.69-1.08,0.96c-0.06,0.06-0.12,0.09-0.21,0.09c-0.09,0-0.21-0.06-0.27-0.15
			C135.827,103.681,135.887,103.471,136.037,103.352z M137.477,97.861c-0.09-0.15-0.06-0.36,0.09-0.48
			c0.18-0.09,0.39-0.06,0.48,0.09c0.3,0.42,0.48,0.87,0.6,1.35c0.06,0.21-0.06,0.39-0.24,0.42c-0.03,0-0.06,0-0.09,0
			c-0.15,0-0.3-0.09-0.33-0.24C137.897,98.582,137.717,98.222,137.477,97.861z M137.687,101.432c0.21-0.39,0.33-0.78,0.36-1.2
			c0.03-0.18,0.21-0.33,0.39-0.3c0.18,0.03,0.33,0.21,0.3,0.39c-0.06,0.48-0.21,0.96-0.42,1.41c-0.06,0.12-0.18,0.18-0.3,0.18
			c-0.06,0-0.12,0-0.15-0.03C137.687,101.821,137.627,101.611,137.687,101.432z"/>
		<path fill="#FFFFFF" d="M23.178,121.712c0.03-5.94,5.01-10.77,11.01-10.8c2.64,0,5.04,0.87,6.93,2.34c0.72,0.6,0.84,1.65,0.3,2.4
			c-0.6,0.75-1.71,0.87-2.4,0.33c-1.32-1.08-2.97-1.65-4.83-1.65c-2.07,0-3.99,0.84-5.4,2.16c-1.35,1.38-2.19,3.18-2.19,5.22
			c0,2.04,0.84,3.899,2.19,5.22c1.41,1.32,3.33,2.16,5.4,2.16c1.86,0,3.479-0.57,4.83-1.65c0.69-0.51,1.8-0.39,2.4,0.33
			c0.54,0.75,0.42,1.83-0.3,2.4c-1.89,1.47-4.29,2.34-6.93,2.34C28.188,132.511,23.208,127.682,23.178,121.712z"/>
		<path fill="#FFFFFF" d="M55.938,132.511c-4.83,0-8.669-3.9-8.669-8.669v-10.68c0-0.93,0.72-1.65,1.65-1.65
			c0.9,0,1.68,0.72,1.68,1.65v10.68c0,2.939,2.399,5.339,5.339,5.339c2.97,0,5.34-2.4,5.34-5.339v-10.68c0-0.93,0.75-1.65,1.68-1.65
			c0.93,0,1.65,0.72,1.65,1.65v10.68C64.607,128.611,60.737,132.511,55.938,132.511z"/>
		<path fill="#FFFFFF" d="M78.678,124.352h-3.69v6.51c0,0.9-0.75,1.65-1.68,1.65c-0.9,0-1.65-0.75-1.65-1.65v-17.699
			c0-0.93,0.75-1.65,1.65-1.65h0.03h5.34c3.57,0,6.45,2.88,6.45,6.45C85.127,121.472,82.248,124.352,78.678,124.352z
			 M74.988,121.021h3.69c1.74,0,3.09-1.38,3.12-3.06c-0.03-1.74-1.38-3.12-3.12-3.12h-3.69V121.021z"/>
		<path fill="#FFFFFF" d="M88.218,121.712c0.03-5.94,5.01-10.77,11.009-10.8c2.64,0,5.04,0.87,6.93,2.34c0.72,0.6,0.84,1.65,0.3,2.4
			c-0.6,0.75-1.71,0.87-2.4,0.33c-1.32-1.08-2.97-1.65-4.83-1.65c-2.07,0-3.99,0.84-5.399,2.16c-1.35,1.38-2.19,3.18-2.19,5.22
			c0,2.04,0.84,3.899,2.19,5.22c1.41,1.32,3.33,2.16,5.399,2.16c1.86,0,3.48-0.57,4.83-1.65c0.69-0.51,1.8-0.39,2.4,0.33
			c0.54,0.75,0.42,1.83-0.3,2.4c-1.89,1.47-4.29,2.34-6.93,2.34C93.228,132.511,88.248,127.682,88.218,121.712z"/>
		<path fill="#FFFFFF" d="M122.537,127.562h-7.29l-1.47,3.9c-0.27,0.66-0.9,1.05-1.56,1.05c-0.21,0-0.39-0.03-0.57-0.09
			c-0.87-0.33-1.29-1.29-0.99-2.16l6.63-17.669c0.27-0.66,0.93-1.08,1.59-1.05c0.69-0.03,1.32,0.39,1.59,1.05l6.629,17.669
			c0.3,0.87-0.12,1.83-0.99,2.16c-0.15,0.06-0.36,0.09-0.57,0.09c-0.66,0-1.29-0.39-1.53-1.05L122.537,127.562z M121.307,124.262
			l-2.43-6.45l-2.43,6.45H121.307z"/>
		<path fill="#FFFFFF" d="M131.208,130.861v-17.549c0-0.87,0.72-1.65,1.65-1.65c0.93,0,1.65,0.78,1.65,1.65v8.61l9.719-9.75
			c0.66-0.66,1.68-0.66,2.34,0c0.63,0.63,0.63,1.68,0,2.34l-6.6,6.57l6.66,8.73c0.6,0.69,0.48,1.74-0.24,2.31
			c-0.3,0.27-0.66,0.39-1.05,0.39c-0.45,0-0.9-0.21-1.23-0.6l-6.48-8.49l-3.12,3.18v4.26c0,0.9-0.72,1.65-1.65,1.65
			C131.927,132.511,131.208,131.761,131.208,130.861z"/>
		<path fill="#FFFFFF" d="M152.657,130.861v-17.699c0-0.93,0.72-1.65,1.65-1.65h0.03c0,0,0,0,0.06,0h9.72
			c0.87,0,1.65,0.72,1.65,1.65c0,0.93-0.78,1.68-1.65,1.68h-8.13v5.49h6.99c0.9,0,1.65,0.78,1.65,1.65c0,0.93-0.75,1.68-1.65,1.68
			h-6.99v5.52h8.13c0.87,0,1.65,0.75,1.65,1.68c0,0.9-0.78,1.65-1.65,1.65h-9.72c-0.06,0-0.06-0.03-0.06-0.03l-0.03,0.03
			C153.377,132.511,152.657,131.761,152.657,130.861z"/>
		<path fill="#FFFFFF" d="M169.787,127.292c0.54-0.66,1.53-0.75,2.19-0.21c1.32,1.08,3.6,2.34,5.729,2.31c1.5,0,2.85-0.45,3.75-1.11
			c0.9-0.66,1.29-1.41,1.29-2.16c0-0.39-0.09-0.66-0.27-0.96c-0.18-0.3-0.45-0.6-0.9-0.9c-0.87-0.57-2.34-1.08-4.11-1.41h-0.06
			c-1.41-0.27-2.73-0.63-3.87-1.17c-1.14-0.54-2.13-1.29-2.79-2.34c-0.45-0.72-0.69-1.56-0.69-2.46c0-1.8,1.02-3.36,2.4-4.38
			c1.41-1.02,3.24-1.59,5.189-1.59c2.88,0,5.01,1.41,6.54,2.4c0.69,0.48,0.9,1.44,0.42,2.13c-0.45,0.72-1.41,0.93-2.13,0.45
			c-1.53-1.02-3-1.92-4.83-1.92c-1.35,0-2.55,0.42-3.359,1.02c-0.81,0.6-1.14,1.26-1.14,1.89c0,0.36,0.06,0.6,0.21,0.84
			c0.15,0.24,0.42,0.51,0.81,0.78c0.78,0.54,2.13,1.02,3.75,1.32h0.06c1.53,0.3,2.94,0.69,4.14,1.26c1.23,0.6,2.31,1.38,3,2.49
			c0.45,0.72,0.72,1.62,0.72,2.55c0,1.92-1.08,3.57-2.58,4.65c-1.47,1.08-3.42,1.71-5.55,1.71c-3.24-0.03-5.97-1.65-7.68-3
			C169.367,128.941,169.276,127.951,169.787,127.292z"/>
	</g>
	<g>
		<path fill="#FFFFFF" d="M88.838,156.188c-0.043,0.021-0.105,0.021-0.189,0.021c-0.609,0-1.134-0.126-1.574-0.356
			c-3.549,0.84-5.334,4.262-5.334,7.307c0,2.708,1.428,5.102,4.283,5.102c3.275,0,4.809-3.149,4.809-5.669
			c0-1.68-0.672-3.087-1.974-3.087c-1.323,0-2.142,1.387-2.142,2.855c0,0.631,0.168,1.303,0.482,1.869l-1.133,0.566
			c-0.357-0.65-0.525-1.406-0.525-2.141c0-1.975,1.218-3.885,3.359-3.885c2.058,0,3.086,1.764,3.086,3.821
			c0,2.855-2.016,6.299-6.067,6.299c-3.611,0-5.417-2.708-5.417-5.731c0-3.191,1.994-6.698,5.984-7.727
			c-0.441-0.315-0.777-0.777-1.029-1.323c-0.525,0.063-1.092,0.104-1.701,0.104c-4.556,0-6.403-2.184-6.403-4.178
			c0-1.68,1.302-3.233,3.339-3.233c1.448,0,2.582,0.672,3.296,1.932c-0.294,0.21-0.608,0.462-0.924,0.672
			c-0.462-0.944-1.239-1.638-2.372-1.638c-1.449,0-2.311,1.05-2.311,2.268c0,1.638,1.555,3.549,5.375,3.549
			c0.525,0,0.987-0.043,1.449-0.105c-0.23-0.693-0.357-1.49-0.357-2.289c0-2.855,1.491-5.752,4.283-5.752
			c1.723,0,2.667,1.176,2.667,2.812c0,2.1-1.638,4.767-5.249,5.648c0.23,0.588,0.546,1.05,0.986,1.322
			c0.379-0.062,0.799-0.104,1.197-0.104c0.084,0,0.168,0,0.23,0.021L88.838,156.188z M86.024,151.105
			c0,0.756,0.105,1.471,0.295,2.121c3.044-0.861,4.324-3.317,4.324-5.123c0-1.134-0.524-2.037-1.428-2.078
			C87.095,146.025,86.024,148.502,86.024,151.105z"/>
		<path fill="#FFFFFF" d="M93.397,162.191c0,0.588,0.357,1.071,0.966,1.071c0.776,0,1.323-0.882,1.323-1.89
			c0-1.512-0.799-3.107-1.197-5.249c-0.336,1.092-1.574,4.997-3.045,7.895l-0.377-0.21c1.49-3.023,2.855-7.201,3.275-8.504
			c-0.084-0.461-0.127-0.965-0.127-1.784c0-0.756,0.211-1.47,0.379-2.058l0.881,0.168c-0.104,1.197-0.252,2.121-0.524,3.023
			c0.126,2.121,1.848,4.577,1.848,6.613c0,0.168-0.021,0.336-0.063,0.483c0.441-0.735,0.883-1.68,1.323-2.835
			c0.104,0,0.378,0.147,0.378,0.211c-0.714,1.68-1.806,4.996-4.178,4.996c-0.924,0-1.911-0.566-1.827-1.889L93.397,162.191z"/>
		<path fill="#FFFFFF" d="M98.731,154.402c0.84-4.283,1.47-4.871,2.246-4.871c0.588,0,0.819,0.525,0.819,1.386
			c0,0.819-0.336,2.058-0.86,3.485h0.756l-0.127,0.672h-0.881c-0.441,1.134-1.008,2.33-1.575,3.506
			c-0.126,1.092-0.21,2.079-0.21,2.855c0,1.219,0.23,1.764,0.63,1.764c0.714,0,1.532-1.596,2.562-4.283
			c0.105,0,0.357,0.105,0.357,0.211v0.041c-1.26,3.359-2.121,4.955-3.275,4.955c-0.967,0-1.239-1.301-1.239-3.38
			c0.042-1.512,0.272-3.401,0.651-5.501c0-0.062,0.021-0.105,0.021-0.168h-0.798l0.126-0.672H98.731z M100.18,155.074h-0.525
			l-0.314,2.1L100.18,155.074z M100.977,150.329c-0.398,0-0.776,1.512-1.217,4.073h0.672c0.482-1.344,0.84-2.604,0.84-3.549
			C101.272,150.539,101.229,150.329,100.977,150.329z"/>
		<path fill="#FFFFFF" d="M102.364,163.41c0-0.463,0.314-0.967,0.86-0.967c0.44,0,0.63,0.315,0.63,0.693
			c0,0.462-0.294,0.986-0.861,0.986C102.573,164.123,102.364,163.787,102.364,163.41z"/>
		<path fill="#FFFFFF" d="M110.973,156.796c0,0.315,0.062,0.651,0.188,0.966l-0.924,0.441c-0.188-0.336-0.272-0.735-0.272-1.155
			c0-1.323,0.902-2.792,2.561-2.792c1.471,0,2.184,0.902,2.184,2.246c0,2.918-2.812,4.137-4.619,6.697
			c0.147-0.062,0.336-0.062,0.525-0.062c0.42,0,0.986,0.084,1.449,0.084c0.86,0,1.28-0.21,1.553-0.482
			c0.231,0.252,0.42,0.524,0.651,0.776c-0.356,0.399-0.756,0.588-1.364,0.588c-0.945,0-1.869-0.399-2.562-0.399
			c-0.293,0-0.734,0.127-0.84,0.42l-0.734-0.398c0.105-0.21,0.252-0.504,0.441-0.777c1.932-2.855,4.451-4.156,4.451-6.592
			c0-0.861-0.483-1.387-1.219-1.387C111.518,154.969,110.973,155.852,110.973,156.796z"/>
		<path fill="#FFFFFF" d="M115.508,160.596c0-2.98,1.323-6.34,3.549-6.34c1.658,0,2.162,1.596,2.162,3.527
			c0,3.128-1.364,6.34-3.527,6.34C116.139,164.123,115.508,162.57,115.508,160.596z M120.065,157.488
			c0-1.574-0.336-2.498-1.092-2.498c-1.449,0-2.31,3.401-2.31,5.941c0,1.617,0.336,2.457,1.092,2.457
			C119.079,163.389,120.065,160.197,120.065,157.488z"/>
		<path fill="#FFFFFF" d="M122.102,160.596c0-2.98,1.323-6.34,3.549-6.34c1.658,0,2.162,1.596,2.162,3.527
			c0,3.128-1.364,6.34-3.527,6.34C122.733,164.123,122.102,162.57,122.102,160.596z M126.659,157.488
			c0-1.574-0.336-2.498-1.092-2.498c-1.449,0-2.31,3.401-2.31,5.941c0,1.617,0.336,2.457,1.092,2.457
			C125.672,163.389,126.659,160.197,126.659,157.488z"/>
		<path fill="#FFFFFF" d="M132.686,160.323c-0.441,0.756-1.071,1.302-1.869,1.302c-1.386,0-2.016-1.386-2.016-3.002
			c0-2.059,1.07-4.431,3.065-4.431c1.575,0,2.288,1.512,2.288,3.464c0,2.982-1.637,7.014-4.324,8.398
			c-0.189-0.293-0.379-0.588-0.547-0.881C130.943,164.271,132.098,162.318,132.686,160.323z M131.069,160.911
			c1.218,0,2.121-1.764,2.121-3.464c0-1.449-0.42-2.52-1.323-2.52c-1.218,0-1.952,2.1-1.952,3.779c0,1.154,0.336,2.141,1.07,2.184
			C131.006,160.891,131.047,160.911,131.069,160.911z"/>
	</g>
	<g>
		<path fill="#FFFFFF" d="M127.518,50.236c0-8.148-7.129-15.508-22.436-23.161c-0.599-0.299-1.303-0.299-1.902,0
			c-15.306,7.653-22.435,15.013-22.435,23.161c0,3.821,2.338,7.105,5.659,8.499l3.647,12.158c0.215,0.719,0.793,1.271,1.52,1.452
			c0.209,0.052,5.191,1.276,12.643,1.276c7.454,0,12.436-1.225,12.643-1.276c0.729-0.182,1.305-0.733,1.521-1.451l3.674-12.251
			C125.268,57.204,127.518,53.98,127.518,50.236z"/>
	</g>
	<path fill="#CABB9F" d="M111.217,54.927c-1.523,2.296-4.131,3.813-7.086,3.813c-2.955,0-5.562-1.518-7.086-3.812
		c-1.373,2.064-3.625,3.489-6.216,3.756l2.933,9.776c1.799,0.337,5.57,0.909,10.453,0.909c4.885,0,8.655-0.571,10.456-0.909
		l2.93-9.766C114.938,58.474,112.62,57.037,111.217,54.927z"/>
	<path fill="#25B5B5" d="M104.131,30.564c-1.551,0.787-3,1.568-4.365,2.347c8.651,5.664,12.87,11.346,12.87,17.325
		c0,3.126,2.543,5.67,5.67,5.67c3.125,0,5.668-2.544,5.668-5.67C123.973,43.775,117.483,37.337,104.131,30.564z"/>
	<path opacity="0.5" fill="#25B5B5" d="M89.952,39.818c-3.781,3.503-5.663,6.957-5.663,10.418c0,3.126,2.543,5.67,5.668,5.67
		c3.121,0,5.659-2.533,5.67-5.65c0-0.007-0.001-0.013-0.001-0.02c0-0.004,0.001-0.008,0.001-0.012
		C95.623,46.734,93.748,43.319,89.952,39.818z"/>
	<path opacity="0.75" fill="#25B5B5" d="M97.037,34.536c-1.836,1.146-3.475,2.286-4.91,3.419c4.256,4,6.336,8.029,6.336,12.281
		c0,0.007-0.001,0.013-0.001,0.02c0.011,3.117,2.549,5.65,5.669,5.65c3.125,0,5.668-2.544,5.668-5.67
		C109.799,45.035,105.614,39.894,97.037,34.536z"/>
</g>
</svg>
